/* XPM */
static char *f4310cb378064f1db81f1b15ac151386Dr2WIiVWOOBtYgkh[] = {
/* columns rows colors chars-per-pixel */
"32 32 2 1 ",
"  c #59C135",
". c #9CDB43",
/* pixels */
"..................... ..........",
"..................... .. .......",
". ....  .........    .  .. ..  .",
".......   . ....................",
"  ............................  ",
"   ...........................  ",
" ......................... . .. ",
" .........   ... .   .....  . . ",
"................. .......     ..",
" .. ........................... ",
".   .  ....................... .",
".       .............. ....... .",
"   ....................   ...   ",
"............................  ..",
"............     .. . ....... ..",
"   ........    ..  ...........  ",
"    ..........................  ",
"  ...................  .......  ",
"   ..  ..   ................    ",
"  .......................       ",
" ............................ . ",
"  .................... .......  ",
".. ..... ........       ........",
"  ..... .   .......    . ....   ",
"............................  ..",
"................................",
" ...................... ....... ",
".   ...... . .     .....  ..   .",
".......   . ....................",
". ....  .........    .  .. ..  .",
"..................... .. .......",
"..................... .........."
};
