/* XPM */
static char *e5ad8f5a47234336b0e364ba1eb1ea36iq3rpmfKtNxcIU8C[] = {
/* columns rows colors chars-per-pixel */
"32 32 4 1 ",
"  c #423934",
". c #5A4E44",
"X c #796755",
"o c #A08662",
/* pixels */
" XXoooX ooooo .Xooo Xooooo Xoooo",
".XXXXX. XoooX .XXXX XXoooX .XXXo",
"..XXX..  XXX  .XXXX XXXXXX ..XXX",
" ..... . ...   .XX  .XXXXX.  ...",
".      ..   X .   .  .....  XXXX",
".XXXX ...XXX. .....        ..XX.",
" ....   ....   ...   ......  .. ",
"     Xoo    oo     oo       .  o",
"XXoooXoooo oooX. ooooo oooo .ooo",
".XXXX XXXX XXXX. XoooX XXX. .XoX",
".XXX. .XX. XXXX.  XXX  .X..  .XX",
" ...  ....  XX.   ... .... X    ",
".    . ... .   . X   X     X. XX",
".XXXX. ..  ..... .XXXX. .XXX. .X",
" ......     ...   ....   ...   .",
"        ooo     oo    ooo   .oo ",
"XXooooX ooooo .Xooo Xooooo Xoooo",
".XXXXX. XoooX .XXXX XXoooX .XXXo",
"..XXX..  XXX  .XXXX XXXXXX ..XXX",
" ..... . ...   .XX  .XXXXX.     ",
".      ..   X .   .  .....  XXXX",
".XXXX ...XXX. .....        ..XX.",
" ....   ....   ...   ......  .. ",
"     Xoo    oo     oo       .  o",
"XXoooXoooo oooX. ooooo oooo .ooo",
".XXXX XXXX XXXX. XoooX XXX. .XoX",
".XXX. .XX. XXXX.  XXX  .X..  .XX",
" ...  ....  XX.   ... .... X  ..",
".    . ... .   . X   X     X. XX",
".XXXX. ..  ..... .XXXX. .XXX. .X",
" ......     ...   ....   ...   .",
"        ooo     oo    ooo   ooo "
};
