/* XPM */
static char *c9d11d3a75cb45418368426af7e45be0Qtx9q2vz1FUMyoXk[] = {
/* columns rows colors chars-per-pixel */
"32 32 7 1 ",
"  c black",
". c #E64539",
"X c #AD2F45",
"o c #59C135",
"O c #FF8933",
"+ c #9CDB43",
"@ c #FFC2A1",
/* pixels */
"+++++++++++++++++++++o++++++++++",
"+++++++++++++++++++++o++o+++++++",
"+o++++oo+++++++++oooo+oo++o++oo+",
"+++++++ooo+o++++++++++++++++++++",
"oo++++++++++++++++++++++++++++oo",
"ooo+++++++++++++++++++++++++++oo",
"o+++++++++++++++++++++++++o+o++o",
"o++++++++              +++oo+o+o",
"++++++++ OOOOOOOO@@@OOO +ooooo++",
"o++o+++ OXXXXXXXXXXXXXXO ++++++o",
"+ooo+oo O.............XO +++++o+",
"+oooooo O....XO..X@...XO +++++o+",
"ooo++++ O....XOOOO@...XO o+++ooo",
"+++++++ O...XOOOOOO@..XO +++oo++",
"+++++++ O...XOO.XOO@..XO ++++o++",
"ooo++++ O...XOO.......XO +++++oo",
"oooo+++ O...XOOOOOO@..XO +++++oo",
"oo+++++ O.......XOO@..XO +++++oo",
"ooo++oo O...XOO.XOO@..XO +++oooo",
"oo+++++ O...XOOOOOO@..XO ooooooo",
"o++++++ O....XOOOO@...XO ++++o+o",
"oo+++++ O....XO..X@...XO +++++oo",
"++o++++ O.............XO +++++++",
"oo++++++ OOOOOOOO@@@OOO +++++ooo",
"+++++++++              +++++oo++",
"++++++++++++++++++++++++++++++++",
"o++++++++++++++++++++++o+++++++o",
"+ooo++++++o+o+ooooo+++++oo++ooo+",
"+++++++ooo+o++++++++++++++++++++",
"+o++++oo+++++++++oooo+oo++o++oo+",
"+++++++++++++++++++++o++o+++++++",
"+++++++++++++++++++++o++++++++++"
};
