/* XPM */
static char *ade7549d8bf9445ebf312af7ce348d18J4ntucFN0MBsgoaw[] = {
/* columns rows colors chars-per-pixel */
"32 32 86 1 ",
"  c black",
". c #000403",
"X c #000106",
"o c #000507",
"O c #0F0002",
"+ c #000A0A",
"@ c #100003",
"# c #1B040D",
"$ c #201E26",
"% c #221F28",
"& c #232029",
"* c #661D33",
"= c #5D3232",
"- c #672534",
"; c #682234",
": c #6A2435",
"> c #6A2B35",
", c #6A2E36",
"< c #762139",
"1 c #712439",
"2 c #77243B",
"3 c #7F223D",
"4 c #732E3A",
"5 c #6A3237",
"6 c #6B3537",
"7 c #6B3438",
"8 c #6C3738",
"9 c #6B3A39",
"0 c #6C3A39",
"q c #6C3D39",
"w c #73343C",
"e c #73383C",
"r c #743C3E",
"t c #6C413A",
"y c #6D423C",
"u c #6D453E",
"i c #6D493E",
"p c #75423F",
"a c #C93860",
"s c #C93C61",
"d c #B75F60",
"f c #B85F60",
"g c #D64166",
"h c #D9476A",
"j c #DF4A6F",
"k c #CD5D6A",
"l c #D3566B",
"z c #D4596B",
"x c #D55C6D",
"c c #C86469",
"v c #D5636E",
"b c #D76F71",
"n c #D97C73",
"m c #DA8577",
"M c #FF4A85",
"N c #FF588B",
"B c #FF638B",
"V c #FF638D",
"C c #FF678E",
"Z c #FF6B8D",
"A c #FF6B90",
"S c #FF7691",
"D c #FF7891",
"F c #FF7E93",
"G c #FF7895",
"H c #FF7C96",
"J c #FF8093",
"K c #FF8493",
"L c #FF8194",
"P c #FF8694",
"I c #FF8B97",
"U c #FF8D95",
"Y c #FF9297",
"T c #FF9797",
"R c #FF939B",
"E c #FF9798",
"W c #FF939E",
"Q c #FF9B99",
"! c #FF9E9B",
"~ c #FF9F9B",
"^ c #FFA09B",
"/ c #FFA69B",
"( c #FFA39E",
") c #FFA49E",
"_ c #FFAB9F",
"` c #FFADA0",
/* pixels */
" 3::2#<Oeqiqy0q::tuq,q51@<#2::3 ",
"3=WRfcabGFDABU!FU_UFJQFCnacfRW=3",
":W  kh X                X hk  W:",
":R jg+&%%%%%%%%%%%%%%%%%%&+gj R:",
"2dkg+%$$$$$$$$$$$$$$$$$$$$%+gkd2",
"#ch+%$$$$$$$$$$$$$$$$$$$$$$%+hc#",
"<a &$$$$$$$$$$$$$$$$$$$$$$$$& s<",
"OmX%$$$$$$$$$$$$$$$$$$$$$$$$%ox@",
"p( %$$$$$$$$$$$$$$$$$$$$$$$$% H4",
"9V %$$$$$$$$$$$$$$$$$$$$$$$$% T5",
"uY %$$$$$$$$$$$$$$$$$$$$$$$$% P7",
">Y %$$$$$$$$$$$$$$$$$$$$$$$$%oM8",
"*U %$$$$$$$$$$$$$$$$$$$$$$$$% Q9",
"t^ %$$$$$$$$$$$$$$$$$$$$$$$$% Q,",
";Q %$$$$$$$$$$$$$$$$$$$$$$$$% !5",
"6K %$$$$$$$$$$$$$$$$$$$$$$$$% U7",
":U %$$$$$$$$$$$$$$$$$$$$$$$$% S5",
"-Z %$$$$$$$$$$$$$$$$$$$$$$$$% Z7",
"5L %$$$$$$$$$$$$$$$$$$$$$$$$% J5",
"tE %$$$$$$$$$$$$$$$$$$$$$$$$% !,",
"9` %$$$$$$$$$$$$$$$$$$$$$$$$% I5",
";T %$$$$$$$$$$$$$$$$$$$$$$$$% Q7",
":Q %$$$$$$$$$$$$$$$$$$$$$$$$% F0",
"p( %$$$$$$$$$$$$$$$$$$$$$$$$% Hw",
"Ozo%$$$$$$$$$$$$$$$$$$$$$$$$%ox@",
"<s &$$$$$$$$$$$$$$$$$$$$$$$$& s<",
"#ch+%$$$$$$$$$$$$$$$$$$$$$$%+hc#",
"2dkg+%$$$$$$$$$$$$$$$$$$$$%+gkd2",
":R jg+&%%%%%%%%%%%%%%%%%%&+gj R:",
":W  kh o    .           o hk  W:",
"3=WRfcsl)_!JNPRJU/JI!_DHvscfRW=3",
" 3::2#<Or59>:9utq:75qt>rO<#2::3 "
};
