/* XPM */
static char *dcb2f11a9f1b471df3aaca0031e6b1696bz9kh0xgg2pldz7[] = {
/* columns rows colors chars-per-pixel */
"32 32 8 1 ",
"  c #010101",
". c #59C135",
"X c #9CDB43",
"o c #4C4C83",
"O c #50508A",
"+ c #B6B6DA",
"@ c #BFBFE5",
"# c white",
/* pixels */
"XXXXXXXXXXXXXXXXXXXXX.XXXXXXXXXX",
"XXXXXXXXXXXXXXXXXXXXX.XX.XXXXXXX",
"X.XXXX..XXXXXXXXX....X..XX.XX..X",
"XXXXXXX...X.XXXXXXXXXXXXXXXXXXXX",
"..XXXXXXXXXXXXXXXXXXXXXXXXXXXX..",
"...XXXXXXXXXXXXXXXXXXXXXXXXXXX..",
".XXXXXXXXXXXXXXXXXXXXXXXXX.X.XX.",
".XXXXXXXXX...XXX.X...XXXXX..X.X.",
"XXXXXXXXXXXXX      XXXXXX.....XX",
".XX.XXXXXXXX ###### XXXXXXXXXXX.",
"X...X..XXXX #######+ XXXXXXXXX.X",
"X.......XXX #######+ X.XXXXXXX.X",
"...XXXXXXXX ## ### + XX...XXX...",
"XXXXXXXXXXX ## ### + XXXXXXX..XX",
"XXXXXXXXXXX #######+ .XXXXXXX.XX",
"...XXXXXXXXX #####+ XXXXXXXXXX..",
"....XXXXXXXXX O@@O XXXXXXXXXXX..",
"..XXXXXXXXXX #####+ X..XXXXXXX..",
"...XX..XX..X #####+ XXXXXXXX....",
"..XXXXXXXXXX #####+ XXXXX.......",
".XXXXXXXXXXX ####@o XXXXXXXXX.X.",
"..XXXXXXXXXX ### O@ XX.XXXXXXX..",
"XX.XXXXX.XXX ##  @@ X...XXXXXXXX",
"..XXXXX.X..X + X @ XX..X.XXXX...",
"XXXXXXXXXXXX   X  XXXXXXXXXX..XX",
"XXXXXXXXXXXXXXXXXXXXXXXXXXXXXXXX",
".XXXXXXXXXXXXXXXXXXXXXX.XXXXXXX.",
"X...XXXXXX.X.X.....XXXXX..XX...X",
"XXXXXXX...X.XXXXXXXXXXXXXXXXXXXX",
"X.XXXX..XXXXXXXXX....X..XX.XX..X",
"XXXXXXXXXXXXXXXXXXXXX.XX.XXXXXXX",
"XXXXXXXXXXXXXXXXXXXXX.XXXXXXXXXX"
};
